<svg xmlns="http://www.w3.org/2000/svg" viewBox="0 0 620 380" role="img" aria-labelledby="title"><title id="title">導線の間の空間で電場は下向き、磁場は紙面の奥向きなので、エネルギーの流れは右へ進んで抵抗へ入る</title><defs><marker id="a1c1c1c" viewBox="0 0 10 10" refX="8" refY="5" markerWidth="10" markerHeight="10" markerUnits="userSpaceOnUse" orient="auto"><path d="M 0 0 L 10 5 L 0 10 z" fill="#1c1c1c"/></marker><marker id="a1f6fd0" viewBox="0 0 10 10" refX="8" refY="5" markerWidth="10" markerHeight="10" markerUnits="userSpaceOnUse" orient="auto"><path d="M 0 0 L 10 5 L 0 10 z" fill="#1f6fd0"/></marker><marker id="ae07b1f" viewBox="0 0 10 10" refX="8" refY="5" markerWidth="10" markerHeight="10" markerUnits="userSpaceOnUse" orient="auto"><path d="M 0 0 L 10 5 L 0 10 z" fill="#e07b1f"/></marker></defs><rect x="0" y="0" width="620" height="380" fill="#ffffff"/><line x1="80" y1="100" x2="520" y2="100" stroke="#8d8d8d" stroke-width="4" stroke-linecap="round"/><line x1="80" y1="280" x2="520" y2="280" stroke="#8d8d8d" stroke-width="4" stroke-linecap="round"/><line x1="80" y1="100" x2="80" y2="160" stroke="#8d8d8d" stroke-width="4" stroke-linecap="round"/><line x1="80" y1="220" x2="80" y2="280" stroke="#8d8d8d" stroke-width="4" stroke-linecap="round"/><line x1="60" y1="160" x2="100" y2="160" stroke="#1c1c1c" stroke-width="3" stroke-linecap="round"/><line x1="70" y1="172" x2="90" y2="172" stroke="#1c1c1c" stroke-width="5" stroke-linecap="round"/><line x1="60" y1="208" x2="100" y2="208" stroke="#1c1c1c" stroke-width="3" stroke-linecap="round"/><line x1="70" y1="220" x2="90" y2="220" stroke="#1c1c1c" stroke-width="5" stroke-linecap="round"/><text x="40" y="194" font-family="Noto Sans CJK JP, Hiragino Sans, Yu Gothic, sans-serif" font-size="15" text-anchor="end" fill="#1c1c1c">電池</text><line x1="520" y1="100" x2="520" y2="140" stroke="#8d8d8d" stroke-width="4" stroke-linecap="round"/><line x1="520" y1="240" x2="520" y2="280" stroke="#8d8d8d" stroke-width="4" stroke-linecap="round"/><rect x="506" y="140" width="28" height="100" fill="#f6e6b8" stroke="#1c1c1c" stroke-width="2"/><text x="548" y="194" font-family="Noto Sans CJK JP, Hiragino Sans, Yu Gothic, sans-serif" font-size="15" text-anchor="start" fill="#1c1c1c">抵抗</text><text x="300" y="84" font-family="Noto Sans CJK JP, Hiragino Sans, Yu Gothic, sans-serif" font-size="14" text-anchor="middle" fill="#6b6b6b">+（電位が高い）</text><text x="300" y="308" font-family="Noto Sans CJK JP, Hiragino Sans, Yu Gothic, sans-serif" font-size="14" text-anchor="middle" fill="#6b6b6b">−（電位が低い）</text><line x1="200" y1="96" x2="240" y2="96" stroke="#1c1c1c" stroke-width="1.4" stroke-linecap="round" marker-end="url(#a1c1c1c)"/><line x1="240" y1="284" x2="200" y2="284" stroke="#1c1c1c" stroke-width="1.4" stroke-linecap="round" marker-end="url(#a1c1c1c)"/><line x1="150" y1="112" x2="150" y2="150" stroke="#1f6fd0" stroke-width="2" stroke-linecap="round" marker-end="url(#a1f6fd0)"/><circle cx="176" cy="238" r="8" fill="#ffffff" stroke="#1c1c1c" stroke-width="1.4"/><line x1="171.2" y1="233.2" x2="180.8" y2="242.8" stroke="#1c1c1c" stroke-width="1.4" stroke-linecap="round"/><line x1="171.2" y1="242.8" x2="180.8" y2="233.2" stroke="#1c1c1c" stroke-width="1.4" stroke-linecap="round"/><line x1="250" y1="112" x2="250" y2="150" stroke="#1f6fd0" stroke-width="2" stroke-linecap="round" marker-end="url(#a1f6fd0)"/><circle cx="276" cy="238" r="8" fill="#ffffff" stroke="#1c1c1c" stroke-width="1.4"/><line x1="271.2" y1="233.2" x2="280.8" y2="242.8" stroke="#1c1c1c" stroke-width="1.4" stroke-linecap="round"/><line x1="271.2" y1="242.8" x2="280.8" y2="233.2" stroke="#1c1c1c" stroke-width="1.4" stroke-linecap="round"/><line x1="350" y1="112" x2="350" y2="150" stroke="#1f6fd0" stroke-width="2" stroke-linecap="round" marker-end="url(#a1f6fd0)"/><circle cx="376" cy="238" r="8" fill="#ffffff" stroke="#1c1c1c" stroke-width="1.4"/><line x1="371.2" y1="233.2" x2="380.8" y2="242.8" stroke="#1c1c1c" stroke-width="1.4" stroke-linecap="round"/><line x1="371.2" y1="242.8" x2="380.8" y2="233.2" stroke="#1c1c1c" stroke-width="1.4" stroke-linecap="round"/><line x1="450" y1="112" x2="450" y2="150" stroke="#1f6fd0" stroke-width="2" stroke-linecap="round" marker-end="url(#a1f6fd0)"/><circle cx="476" cy="238" r="8" fill="#ffffff" stroke="#1c1c1c" stroke-width="1.4"/><line x1="471.2" y1="233.2" x2="480.8" y2="242.8" stroke="#1c1c1c" stroke-width="1.4" stroke-linecap="round"/><line x1="471.2" y1="242.8" x2="480.8" y2="233.2" stroke="#1c1c1c" stroke-width="1.4" stroke-linecap="round"/><text x="138" y="138" font-family="Noto Sans CJK JP, Hiragino Sans, Yu Gothic, sans-serif" font-size="16" text-anchor="end" font-weight="700" fill="#1f6fd0">E</text><text x="176" y="264" font-family="Noto Sans CJK JP, Hiragino Sans, Yu Gothic, sans-serif" font-size="14" text-anchor="middle" fill="#1c1c1c">B（奥へ）</text><line x1="140" y1="160" x2="460" y2="160" stroke="#e07b1f" stroke-width="2" stroke-linecap="round" marker-end="url(#ae07b1f)"/><line x1="140" y1="190" x2="460" y2="190" stroke="#e07b1f" stroke-width="3.5" stroke-linecap="round" marker-end="url(#ae07b1f)"/><line x1="140" y1="220" x2="460" y2="220" stroke="#e07b1f" stroke-width="2" stroke-linecap="round" marker-end="url(#ae07b1f)"/><path d="M 460 160 C 464.7 161.7 480.7 166.7 488 170 C 495.3 173.3 501.3 178.3 504 180" fill="none" stroke="#e07b1f" stroke-width="2" stroke-linejoin="round" stroke-linecap="round" marker-end="url(#ae07b1f)"/><path d="M 460 220 C 464.7 218.3 480.7 213.3 488 210 C 495.3 206.7 501.3 201.7 504 200" fill="none" stroke="#e07b1f" stroke-width="2" stroke-linejoin="round" stroke-linecap="round" marker-end="url(#ae07b1f)"/><text x="300" y="206" font-family="Noto Sans CJK JP, Hiragino Sans, Yu Gothic, sans-serif" font-size="16" text-anchor="middle" font-weight="700" fill="#ffffff" stroke="#ffffff" stroke-width="4" stroke-linejoin="round">S = E×B</text><text x="300" y="206" font-family="Noto Sans CJK JP, Hiragino Sans, Yu Gothic, sans-serif" font-size="16" text-anchor="middle" font-weight="700" fill="#e07b1f">S = E×B</text><text x="596" y="368" font-family="Noto Sans CJK JP, Hiragino Sans, Yu Gothic, sans-serif" font-size="14" text-anchor="end" fill="#6b6b6b">模式図</text><rect x="24" y="337" width="4" height="19.5" fill="#e07b1f" stroke="none" stroke-width="1.2"/><text x="36" y="352" font-family="Noto Sans CJK JP, Hiragino Sans, Yu Gothic, sans-serif" font-size="15" text-anchor="start" font-weight="700" fill="#1c1c1c">エネルギーはまわりの空間を通って抵抗へ入る</text></svg>
