<svg xmlns="http://www.w3.org/2000/svg" viewBox="0 0 760 400" role="img" aria-labelledby="title desc">
<title id="title">図1　中心から飛ぶのではない ── 格子そのものの一様膨張</title>
<desc id="desc">どの観測者を原点に選んでも、距離が大きい点ほど速く遠ざかる（v = HD）</desc>
<defs><marker id="arw-2a78d6" viewBox="0 0 10 10" refX="9" refY="5" markerWidth="6" markerHeight="6" orient="auto-start-reverse"><path d="M0,0 L10,5 L0,10 z" fill="#2a78d6"/></marker><marker id="arw-52514e" viewBox="0 0 10 10" refX="9" refY="5" markerWidth="6" markerHeight="6" orient="auto-start-reverse"><path d="M0,0 L10,5 L0,10 z" fill="#52514e"/></marker></defs>
<rect x="0.0" y="0.0" width="760.0" height="400.0" rx="10" fill="#fcfcfb" stroke="#e2e4e3" stroke-width="1"/>
<text x="24.0" y="32.0" font-family="'Hiragino Sans','Noto Sans JP','Yu Gothic',system-ui,sans-serif" font-size="16" font-weight="700" fill="#0b0b0b" text-anchor="start">図1　中心から飛ぶのではない ── 格子そのものの一様膨張</text>
<text x="24.0" y="54.0" font-family="'Hiragino Sans','Noto Sans JP','Yu Gothic',system-ui,sans-serif" font-size="12.5" font-weight="400" fill="#52514e" text-anchor="start">どの観測者を原点に選んでも、距離が大きい点ほど速く遠ざかる（v = HD）</text>
<text x="186.0" y="86.0" font-family="'Hiragino Sans','Noto Sans JP','Yu Gothic',system-ui,sans-serif" font-size="13" font-weight="700" fill="#0b0b0b" text-anchor="middle">中央の点を原点にしても</text>
<line x1="82.0" y1="116.0" x2="342.0" y2="116.0" stroke="#dcdedd" stroke-width="1" stroke-linecap="round"/>
<line x1="82.0" y1="168.0" x2="342.0" y2="168.0" stroke="#dcdedd" stroke-width="1" stroke-linecap="round"/>
<line x1="82.0" y1="220.0" x2="342.0" y2="220.0" stroke="#dcdedd" stroke-width="1" stroke-linecap="round"/>
<line x1="82.0" y1="272.0" x2="342.0" y2="272.0" stroke="#dcdedd" stroke-width="1" stroke-linecap="round"/>
<line x1="82.0" y1="116.0" x2="82.0" y2="272.0" stroke="#dcdedd" stroke-width="1" stroke-linecap="round"/>
<line x1="134.0" y1="116.0" x2="134.0" y2="272.0" stroke="#dcdedd" stroke-width="1" stroke-linecap="round"/>
<line x1="186.0" y1="116.0" x2="186.0" y2="272.0" stroke="#dcdedd" stroke-width="1" stroke-linecap="round"/>
<line x1="238.0" y1="116.0" x2="238.0" y2="272.0" stroke="#dcdedd" stroke-width="1" stroke-linecap="round"/>
<line x1="290.0" y1="116.0" x2="290.0" y2="272.0" stroke="#dcdedd" stroke-width="1" stroke-linecap="round"/>
<line x1="342.0" y1="116.0" x2="342.0" y2="272.0" stroke="#dcdedd" stroke-width="1" stroke-linecap="round"/>
<line x1="82.0" y1="116.0" x2="67.4" y2="101.4" stroke="#2a78d6" stroke-width="1.5" stroke-linecap="round" marker-end="url(#arw-2a78d6)"/>
<circle cx="82.0" cy="116.0" r="5.0" fill="#2a78d6" stroke="none" stroke-width="1"/>
<line x1="186.0" y1="116.0" x2="186.0" y2="101.4" stroke="#2a78d6" stroke-width="1.5" stroke-linecap="round" marker-end="url(#arw-2a78d6)"/>
<circle cx="186.0" cy="116.0" r="5.0" fill="#2a78d6" stroke="none" stroke-width="1"/>
<line x1="342.0" y1="116.0" x2="363.8" y2="101.4" stroke="#2a78d6" stroke-width="1.5" stroke-linecap="round" marker-end="url(#arw-2a78d6)"/>
<circle cx="342.0" cy="116.0" r="5.0" fill="#2a78d6" stroke="none" stroke-width="1"/>
<line x1="82.0" y1="272.0" x2="67.4" y2="279.3" stroke="#2a78d6" stroke-width="1.5" stroke-linecap="round" marker-end="url(#arw-2a78d6)"/>
<circle cx="82.0" cy="272.0" r="5.0" fill="#2a78d6" stroke="none" stroke-width="1"/>
<circle cx="186.0" cy="220.0" r="5.0" fill="#eb6834" stroke="none" stroke-width="1"/>
<line x1="342.0" y1="272.0" x2="363.8" y2="279.3" stroke="#2a78d6" stroke-width="1.5" stroke-linecap="round" marker-end="url(#arw-2a78d6)"/>
<circle cx="342.0" cy="272.0" r="5.0" fill="#2a78d6" stroke="none" stroke-width="1"/>
<circle cx="186.0" cy="220.0" r="11.0" fill="none" stroke="#eb6834" stroke-width="2"/>
<text x="186.0" y="248.0" font-family="'Hiragino Sans','Noto Sans JP','Yu Gothic',system-ui,sans-serif" font-size="10.5" font-weight="700" fill="#eb6834" text-anchor="middle">観測者</text>
<text x="564.0" y="86.0" font-family="'Hiragino Sans','Noto Sans JP','Yu Gothic',system-ui,sans-serif" font-size="13" font-weight="700" fill="#0b0b0b" text-anchor="middle">端の点を原点にしても</text>
<line x1="460.0" y1="116.0" x2="720.0" y2="116.0" stroke="#dcdedd" stroke-width="1" stroke-linecap="round"/>
<line x1="460.0" y1="168.0" x2="720.0" y2="168.0" stroke="#dcdedd" stroke-width="1" stroke-linecap="round"/>
<line x1="460.0" y1="220.0" x2="720.0" y2="220.0" stroke="#dcdedd" stroke-width="1" stroke-linecap="round"/>
<line x1="460.0" y1="272.0" x2="720.0" y2="272.0" stroke="#dcdedd" stroke-width="1" stroke-linecap="round"/>
<line x1="460.0" y1="116.0" x2="460.0" y2="272.0" stroke="#dcdedd" stroke-width="1" stroke-linecap="round"/>
<line x1="512.0" y1="116.0" x2="512.0" y2="272.0" stroke="#dcdedd" stroke-width="1" stroke-linecap="round"/>
<line x1="564.0" y1="116.0" x2="564.0" y2="272.0" stroke="#dcdedd" stroke-width="1" stroke-linecap="round"/>
<line x1="616.0" y1="116.0" x2="616.0" y2="272.0" stroke="#dcdedd" stroke-width="1" stroke-linecap="round"/>
<line x1="668.0" y1="116.0" x2="668.0" y2="272.0" stroke="#dcdedd" stroke-width="1" stroke-linecap="round"/>
<line x1="720.0" y1="116.0" x2="720.0" y2="272.0" stroke="#dcdedd" stroke-width="1" stroke-linecap="round"/>
<line x1="460.0" y1="116.0" x2="460.0" y2="94.2" stroke="#2a78d6" stroke-width="1.5" stroke-linecap="round" marker-end="url(#arw-2a78d6)"/>
<circle cx="460.0" cy="116.0" r="5.0" fill="#2a78d6" stroke="none" stroke-width="1"/>
<line x1="564.0" y1="116.0" x2="578.6" y2="94.2" stroke="#2a78d6" stroke-width="1.5" stroke-linecap="round" marker-end="url(#arw-2a78d6)"/>
<circle cx="564.0" cy="116.0" r="5.0" fill="#2a78d6" stroke="none" stroke-width="1"/>
<line x1="720.0" y1="116.0" x2="756.4" y2="94.2" stroke="#2a78d6" stroke-width="1.5" stroke-linecap="round" marker-end="url(#arw-2a78d6)"/>
<circle cx="720.0" cy="116.0" r="5.0" fill="#2a78d6" stroke="none" stroke-width="1"/>
<circle cx="460.0" cy="272.0" r="5.0" fill="#eb6834" stroke="none" stroke-width="1"/>
<line x1="564.0" y1="220.0" x2="578.6" y2="212.7" stroke="#2a78d6" stroke-width="1.5" stroke-linecap="round" marker-end="url(#arw-2a78d6)"/>
<circle cx="564.0" cy="220.0" r="5.0" fill="#2a78d6" stroke="none" stroke-width="1"/>
<line x1="720.0" y1="272.0" x2="756.4" y2="272.0" stroke="#2a78d6" stroke-width="1.5" stroke-linecap="round" marker-end="url(#arw-2a78d6)"/>
<circle cx="720.0" cy="272.0" r="5.0" fill="#2a78d6" stroke="none" stroke-width="1"/>
<circle cx="460.0" cy="272.0" r="11.0" fill="none" stroke="#eb6834" stroke-width="2"/>
<text x="460.0" y="300.0" font-family="'Hiragino Sans','Noto Sans JP','Yu Gothic',system-ui,sans-serif" font-size="10.5" font-weight="700" fill="#eb6834" text-anchor="middle">観測者</text>
<line x1="356.0" y1="196.0" x2="404.0" y2="196.0" stroke="#52514e" stroke-width="1.8" stroke-linecap="round" marker-end="url(#arw-52514e)"/>
<text x="380.0" y="224.0" font-family="'Hiragino Sans','Noto Sans JP','Yu Gothic',system-ui,sans-serif" font-size="10.5" font-weight="400" fill="#52514e" text-anchor="middle">原点を</text>
<text x="380.0" y="238.0" font-family="'Hiragino Sans','Noto Sans JP','Yu Gothic',system-ui,sans-serif" font-size="10.5" font-weight="400" fill="#52514e" text-anchor="middle">変更</text>
<rect x="118.0" y="330.0" width="524.0" height="42.0" rx="8" fill="#ffffff" stroke="#e2e4e3" stroke-width="1"/>
<text x="380.0" y="356.0" font-family="'Hiragino Sans','Noto Sans JP','Yu Gothic',system-ui,sans-serif" font-size="12.5" font-weight="700" fill="#0b0b0b" text-anchor="middle">観測者からの距離 D が 2 倍なら矢印も 2 倍 ── 中心は選び出されない</text>
</svg>
