<svg xmlns="http://www.w3.org/2000/svg" viewBox="0 0 440 440" role="img" aria-labelledby="title"><title id="title">向きが時間で変わる流れでは、同じ注入口から出る流線・流跡線・流脈線が別の線になる</title><defs><marker id="a6b6b6b" viewBox="0 0 10 10" refX="8" refY="5" markerWidth="10" markerHeight="10" markerUnits="userSpaceOnUse" orient="auto"><path d="M 0 0 L 10 5 L 0 10 z" fill="#6b6b6b"/></marker></defs><rect x="0" y="0" width="440" height="440" fill="#ffffff"/><line x1="100" y1="360" x2="100" y2="60" stroke="#8d8d8d" stroke-width="2" stroke-dasharray="6 5" stroke-linecap="round"/><path d="M 100 360 L 105.8 359.9 L 111.5 359.7 L 117.3 359.3 L 123 358.8 L 128.7 358.1 L 134.4 357.3 L 140.1 356.3 L 145.7 355.2 L 151.4 353.9 L 156.9 352.5 L 162.5 350.9 L 168 349.2 L 173.4 347.4 L 178.8 345.4 L 184.2 343.3 L 189.5 341 L 194.7 338.6 L 199.9 336 L 205 333.3 L 210 330.5 L 214.9 327.6 L 219.8 324.5 L 224.6 321.3 L 229.3 318 L 233.9 314.5 L 238.5 311 L 242.9 307.3 L 247.2 303.5 L 251.4 299.6 L 255.6 295.6 L 259.6 291.4 L 263.5 287.2 L 267.3 282.9 L 271 278.5 L 274.5 273.9 L 278 269.3 L 281.3 264.6 L 284.5 259.8 L 287.6 254.9 L 290.5 250 L 293.3 245 L 296 239.9 L 298.6 234.7 L 301 229.5 L 303.3 224.2 L 305.4 218.8 L 307.4 213.4 L 309.2 208 L 310.9 202.5 L 312.5 196.9 L 313.9 191.4 L 315.2 185.7 L 316.3 180.1 L 317.3 174.4 L 318.1 168.7 L 318.8 163 L 319.3 157.3 L 319.7 151.5 L 319.9 145.8 L 320 140" fill="none" stroke="#1f6fd0" stroke-width="3" stroke-linejoin="round" stroke-linecap="round"/><path d="M 320 140 L 314.2 140.1 L 308.5 140.3 L 302.7 140.7 L 297 141.2 L 291.3 141.9 L 285.6 142.7 L 279.9 143.7 L 274.3 144.8 L 268.6 146.1 L 263.1 147.5 L 257.5 149.1 L 252 150.8 L 246.6 152.6 L 241.2 154.6 L 235.8 156.7 L 230.5 159 L 225.3 161.4 L 220.1 164 L 215 166.7 L 210 169.5 L 205.1 172.4 L 200.2 175.5 L 195.4 178.7 L 190.7 182 L 186.1 185.5 L 181.5 189 L 177.1 192.7 L 172.8 196.5 L 168.6 200.4 L 164.4 204.4 L 160.4 208.6 L 156.5 212.8 L 152.7 217.1 L 149 221.5 L 145.5 226.1 L 142 230.7 L 138.7 235.4 L 135.5 240.2 L 132.4 245.1 L 129.5 250 L 126.7 255 L 124 260.1 L 121.4 265.3 L 119 270.5 L 116.7 275.8 L 114.6 281.2 L 112.6 286.6 L 110.8 292 L 109.1 297.5 L 107.5 303.1 L 106.1 308.6 L 104.8 314.3 L 103.7 319.9 L 102.7 325.6 L 101.9 331.3 L 101.2 337 L 100.7 342.7 L 100.3 348.5 L 100.1 354.2 L 100 360" fill="none" stroke="#e07b1f" stroke-width="5" stroke-linejoin="round" stroke-linecap="round"/><circle cx="100" cy="360" r="7" fill="#1c1c1c" stroke="#ffffff" stroke-width="2"/><text x="88" y="384" font-family="Noto Sans CJK JP, Hiragino Sans, Yu Gothic, sans-serif" font-size="15" text-anchor="middle" fill="#1c1c1c">注入口</text><circle cx="320" cy="140" r="7" fill="#1f6fd0" stroke="#ffffff" stroke-width="2"/><text x="112" y="100" font-family="Noto Sans CJK JP, Hiragino Sans, Yu Gothic, sans-serif" font-size="15" text-anchor="start" fill="#6b6b6b">流線</text><text x="112" y="121" font-family="Noto Sans CJK JP, Hiragino Sans, Yu Gothic, sans-serif" font-size="15" text-anchor="start" fill="#6b6b6b">（いまの向き）</text><text x="279.6" y="312.4" font-family="Noto Sans CJK JP, Hiragino Sans, Yu Gothic, sans-serif" font-size="15" text-anchor="start" font-weight="700" fill="#1f6fd0">流跡線</text><text x="279.6" y="333.4" font-family="Noto Sans CJK JP, Hiragino Sans, Yu Gothic, sans-serif" font-size="15" text-anchor="start" font-weight="700" fill="#1f6fd0">（最初の粒子の道）</text><text x="162" y="217.6" font-family="Noto Sans CJK JP, Hiragino Sans, Yu Gothic, sans-serif" font-size="16" text-anchor="start" font-weight="700" fill="#ffffff" stroke="#ffffff" stroke-width="4" stroke-linejoin="round">流脈線</text><text x="162" y="217.6" font-family="Noto Sans CJK JP, Hiragino Sans, Yu Gothic, sans-serif" font-size="16" text-anchor="start" font-weight="700" fill="#e07b1f">流脈線</text><line x1="250" y1="408" x2="300" y2="408" stroke="#6b6b6b" stroke-width="1.6" stroke-linecap="round" marker-end="url(#a6b6b6b)"/><text x="306" y="413" font-family="Noto Sans CJK JP, Hiragino Sans, Yu Gothic, sans-serif" font-size="14" text-anchor="start" fill="#6b6b6b">最初の流れ</text><line x1="40" y1="150" x2="40" y2="100" stroke="#6b6b6b" stroke-width="1.6" stroke-linecap="round" marker-end="url(#a6b6b6b)"/><text x="40" y="176" font-family="Noto Sans CJK JP, Hiragino Sans, Yu Gothic, sans-serif" font-size="14" text-anchor="middle" fill="#6b6b6b">いま</text><rect x="180" y="24" width="4" height="42.8" fill="#e07b1f" stroke="none" stroke-width="1.2"/><text x="192" y="40" font-family="Noto Sans CJK JP, Hiragino Sans, Yu Gothic, sans-serif" font-size="16" text-anchor="start" font-weight="700" fill="#1c1c1c">煙が見せるのは流脈線</text><text x="192" y="62" font-family="Noto Sans CJK JP, Hiragino Sans, Yu Gothic, sans-serif" font-size="16" text-anchor="start" font-weight="700" fill="#1c1c1c">流線とも流跡線とも違う</text></svg>
